<?xml version="1.0" encoding="utf-8"?>
<!-- Generator: Adobe Illustrator 19.0.0, SVG Export Plug-In . SVG Version: 6.00 Build 0)  -->
<svg version="1.1" id="Layer_1" xmlns="http://www.w3.org/2000/svg" xmlns:xlink="http://www.w3.org/1999/xlink" x="0px" y="0px"
	 viewBox="0 0 125.6 76.4" style="enable-background:new 0 0 125.6 76.4;" xml:space="preserve">
<style type="text/css">
	.st0{fill:#C10C1A;}
	.st1{fill:#575756;}
</style>
<g id="XMLID_3_">
	<g id="XMLID_7_">
		<g id="XMLID_26_">
			<path class="st0" d="M99.5,62.3c-1.7,0-3.3-1.1-3.8-2.8c-0.7-2.1,0.5-4.4,2.6-5c18.9-6,19.2-10.6,19.3-13.1
				c0.2-3.9-2.8-8.9-4-10.6c-1.3-1.8-0.9-4.3,0.9-5.6c1.8-1.3,4.3-0.9,5.6,0.9c0.6,0.8,6,8.3,5.5,15.8c-0.5,9.1-7.5,14.7-24.9,20.3
				C100.3,62.2,99.9,62.3,99.5,62.3z"/>
		</g>
	</g>
	<g id="XMLID_8_">
		<g id="XMLID_23_">
			<path class="st0" d="M45.2,76.4c-1.2,0-2.4-0.5-3.1-1.5c-1.4-1.7-1.1-4.3,0.7-5.6c8.2-6.5,13.7-12.3,17.3-17.4
				c-2-1-4.1-2.5-5.2-5c-1-2.3-1.6-6.1,1.9-11.2c5-7.4,10-9.1,11.9-9.5c2.6-0.5,5.1,1,5.8,3.5c0.5,1.8,1.7,7.5-1.9,16.2
				c4.8-0.1,8.6-1.4,11.5-3.8C89.7,37.6,90,30,90,29.9c0.1-2.2,1.9-3.9,4.1-3.9c2.2,0.1,3.9,1.9,3.9,4.1c0,0.4-0.4,11.1-8.7,18.1
				c-5.2,4.4-12.3,6.3-20.9,5.6c-4.1,6.3-10.6,13.7-20.7,21.7C46.9,76.1,46.1,76.4,45.2,76.4z M66.9,36c-1.1,0.9-2.3,2.2-3.6,4.2
				c-1.3,2-1.4,3.1-1.3,3.4c0.2,0.5,1.2,1,2.2,1.4C66.1,41.2,66.7,38.2,66.9,36z"/>
		</g>
	</g>
	<g id="XMLID_9_">
		<g id="XMLID_22_">
			<path class="st0" d="M42.2,54.9c-0.2,0-0.4,0-0.6,0c-2.2-0.3-3.7-2.4-3.4-4.6c2.7-17.8,3.6-46.2,3.6-46.4C42,1.7,43.7-0.1,46,0
				c2.2,0.1,3.9,1.9,3.9,4.1c0,1.2-1,29.1-3.7,47.4C45.9,53.5,44.2,54.9,42.2,54.9z"/>
		</g>
	</g>
	<g id="XMLID_11_">
		<g id="XMLID_21_">
			<path class="st0" d="M4,76.4c-1.2,0-2.5-0.6-3.2-1.6c-1.3-1.8-0.9-4.3,0.9-5.6c22.1-16.1,23.1-36.6,23.1-37.4
				c0.1-2.2,1.9-4,4.1-3.9c2.2,0.1,3.9,1.9,3.9,4.1c0,1-1,25.2-26.4,43.7C5.6,76.2,4.8,76.4,4,76.4z"/>
		</g>
	</g>
	<g id="XMLID_13_">
		<g id="XMLID_20_">
			<path class="st1" d="M71.9,68c-2.1,0-3.9-1.7-4-3.9c-0.1-2.2,1.6-4.1,3.8-4.2c0.1,0,6.4-0.3,15.3-2.2c2.2-0.5,4.3,0.9,4.8,3.1
				c0.5,2.2-0.9,4.3-3.1,4.8C79.1,67.8,72.4,68,72.1,68C72,68,72,68,71.9,68z"/>
		</g>
	</g>
</g>
</svg>
